# File created by Blade
# Date/Time:  Tue Apr 07 21:25:57 2015
# Frame Rate: 120.000 fps
#------------------------------------------------------
:FULLY-SPECIFIED
:DEGREES
307
root 22.385705 32.582858 3.627501 47.149592 -85.697162 -20.634403
Spine -1.186599 -5.924295 -0.250691
Head -2.014639 -0.123111 6.543665
LeftShoulder -2.734346 35.635324 20.125223
LeftArm 69.762940 15.406439 -62.234137
LeftForeArm -6.609583 -0.000000 17.892512
LeftHand 8.182706 0.000000 -4.498897
LeftHandThumb1 -26.253704 0.000000 33.147579
RightShoulder 3.249801 2.554128 -16.940089
RightArm 28.708323 -27.731752 80.855441
RightForeArm -2.160043 -0.000000 19.702326
RightHand 5.371878 -0.000000 5.497942
RightHandThumb1 -24.326973 -0.000000 -32.862282
LeftUpLeg -33.148625 -2.628160 1.251091
LeftLeg 1.102138 -0.000000 -0.000000
LeftFoot 1.671554 7.653704 -14.720200
LeftToeBase -8.624659 -0.000000 0.000000
RightUpLeg -45.251231 7.401361 -1.056249
RightLeg 23.630349 -0.000000 -0.000000
RightFoot -5.491467 -6.638550 17.865189
RightToeBase -5.622796 -0.000000 0.000000
308
root 22.385001 32.571417 3.603753 44.511688 -85.420487 -17.844745
Spine -1.228906 -5.965768 -0.246894
Head -2.323110 -0.406342 6.696090
LeftShoulder -2.477057 35.315358 20.344324
LeftArm 70.161973 15.320566 -62.002696
LeftForeArm -6.482732 -0.000000 18.023595
LeftHand 8.188395 -0.000000 -4.377834
LeftHandThumb1 -26.253704 0.000000 33.147579
RightShoulder 3.293338 2.734946 -16.980501
RightArm 28.950980 -27.755874 80.717859
RightForeArm -2.441290 0.000000 19.729646
RightHand 5.307101 -0.000000 5.881310
RightHandThumb1 -24.326973 -0.000000 -32.862282
LeftUpLeg -33.351371 -2.747534 1.187743
LeftLeg 1.190531 -0.000000 -0.000000
LeftFoot 1.513000 7.477037 -14.749992
LeftToeBase -8.530487 -0.000000 0.000000
RightUpLeg -45.051232 6.767414 -0.643159
RightLeg 22.817405 -0.000000 -0.000000
RightFoot -4.691952 -6.707778 16.701106
RightToeBase -3.291001 -0.000000 0.000000
309
root 22.386834 32.557832 3.580023 41.599322 -85.098345 -14.763138
Spine -1.293843 -6.075489 -0.248451
Head -2.599121 -0.679314 6.832696
LeftShoulder -2.206966 34.984395 20.586359
LeftArm 70.562200 15.257317 -61.780511
LeftForeArm -6.237846 -0.000000 18.090935
LeftHand 8.283634 -0.000000 -4.416191
LeftHandThumb1 -26.253704 0.000000 33.147579
RightShoulder 3.368738 2.924746 -17.062819
RightArm 29.181797 -27.814851 80.616389
RightForeArm -2.834574 -0.000000 19.797686
RightHand 5.002960 -0.000000 5.688864
RightHandThumb1 -24.326973 -0.000000 -32.862282
LeftUpLeg -33.604955 -2.951078 1.129469
LeftLeg 1.346870 -0.000000 -0.000000
LeftFoot 1.363971 7.394903 -14.672020
LeftToeBase -8.640677 -0.000000 0.000000
RightUpLeg -44.867642 5.992749 -0.193982
RightLeg 22.165411 -0.000000 -0.000000
RightFoot -4.417841 -6.828560 15.863885
RightToeBase -2.818347 -0.000000 0.000000
310
root 22.383587 32.543276 3.556762 38.791769 -84.821129 -11.830666
Spine -1.327584 -6.128469 -0.313598
Head -2.845908 -0.959678 6.969666
LeftShoulder -1.872512 34.597867 20.873884
LeftArm 70.861292 15.196508 -61.659667
LeftForeArm -6.207462 0.000000 18.171690
LeftHand 8.309263 -0.000000 -4.478193
LeftHandThumb1 -26.253704 0.000000 33.147579
RightShoulder 3.440853 3.097908 -17.147312
RightArm 29.398804 -27.771136 80.544380
RightForeArm -2.721745 0.000000 19.735446
RightHand 5.230984 -0.000000 5.996279
RightHandThumb1 -24.326973 -0.000000 -32.862282
LeftUpLeg -33.815137 -3.115350 1.014878
LeftLeg 1.542826 -0.000000 -0.000000
LeftFoot 0.862426 7.266611 -15.209748
LeftToeBase -7.559201 -0.000000 0.000000
RightUpLeg -44.617311 5.256824 0.160980
RightLeg 21.572324 -0.000000 -0.000000
RightFoot -4.851114 -7.030712 16.455433
RightToeBase -3.404599 -0.000000 0.000000
311
root 22.377844 32.526610 3.536273 35.553077 -84.538462 -8.490389
Spine -1.343605 -6.212130 -0.439970
Head -3.077186 -1.247194 7.093888
LeftShoulder -1.572523 34.196834 21.116000
LeftArm 71.187149 15.159523 -61.486845
LeftForeArm -6.141183 -0.000000 18.211691
LeftHand 8.105414 -0.000000 -4.372593
LeftHandThumb1 -26.253704 0.000000 33.147579
RightShoulder 3.524133 3.295979 -17.237589
RightArm 29.578547 -27.773349 80.485588
RightForeArm -2.816350 -0.000000 19.707795
RightHand 5.322383 -0.000000 5.870344
RightHandThumb1 -24.326973 -0.000000 -32.862282
LeftUpLeg -34.021548 -3.123290 0.696970
LeftLeg 1.782141 -0.000000 -0.000000
LeftFoot 0.791194 7.059510 -14.932259
LeftToeBase -8.034080 -0.000000 0.000000
RightUpLeg -44.287236 4.373316 0.505110
RightLeg 20.955462 -0.000000 -0.000000
RightFoot -5.275927 -7.314160 16.663188
RightToeBase -3.316176 -0.000000 0.000000
312
root 22.372713 32.511810 3.509189 32.853724 -84.291984 -5.692794
Spine -1.364710 -6.218674 -0.594650
Head -3.258645 -1.566565 7.211475
LeftShoulder -1.248770 33.849278 21.402527
LeftArm 71.560826 15.097970 -61.351911
LeftForeArm -6.095191 -0.000000 18.168923
LeftHand 8.049194 -0.000000 -4.371206
LeftHandThumb1 -26.253704 0.000000 33.147579
RightShoulder 3.607794 3.471580 -17.314154
RightArm 29.799359 -27.819974 80.386582
RightForeArm -2.872874 -0.000000 19.657619
RightHand 5.353926 0.000000 5.798148
RightHandThumb1 -24.326973 -0.000000 -32.862282
LeftUpLeg -34.215065 -3.245711 0.502553
LeftLeg 2.012195 -0.000000 -0.000000
LeftFoot 0.493455 6.960981 -15.120479
LeftToeBase -8.013869 -0.000000 0.000000
RightUpLeg -43.804249 3.988434 0.481224
RightLeg 20.091800 -0.000000 -0.000000
RightFoot -5.684474 -7.294268 16.677078
RightToeBase -2.206710 -0.000000 0.000000
313
root 22.365397 32.493130 3.492232 29.335949 -83.972924 -2.105498
Spine -1.407343 -6.281824 -0.786536
Head -3.299335 -1.905045 7.271855
LeftShoulder -0.779845 33.512193 21.762225
LeftArm 71.908385 15.008055 -61.293297
LeftForeArm -6.011309 -0.000000 18.064852
LeftHand 8.096514 -0.000000 -4.593025
LeftHandThumb1 -26.253704 0.000000 33.147579
RightShoulder 3.721552 3.612796 -17.433305
RightArm 29.998750 -27.852680 80.270335
RightForeArm -2.822301 -0.000000 19.603313
RightHand 5.446808 -0.000000 5.922770
RightHandThumb1 -24.326973 -0.000000 -32.862282
LeftUpLeg -34.392934 -3.574799 0.281931
LeftLeg 2.287897 -0.000000 -0.000000
LeftFoot 0.183236 6.940198 -15.251107
LeftToeBase -8.030683 -0.000000 0.000000
RightUpLeg -43.365503 3.265497 0.498707
RightLeg 19.443866 -0.000000 -0.000000
RightFoot -5.885467 -6.569579 16.069683
RightToeBase -1.796132 -0.000000 0.000000
314
root 22.350541 32.473898 3.480565 25.946856 -83.599094 1.344553
Spine -1.439973 -6.423727 -0.940894
Head -3.392373 -2.209552 7.236648
LeftShoulder -0.431114 33.119862 21.992333
LeftArm 72.209182 14.995455 -61.189056
LeftForeArm -5.971132 -0.000000 17.953356
LeftHand 7.922688 -0.000000 -4.501538
LeftHandThumb1 -26.253704 0.000000 33.147579
RightShoulder 3.817960 3.751847 -17.583534
RightArm 30.240415 -27.912053 80.158435
RightForeArm -2.810043 -0.000000 19.511300
RightHand 5.461935 -0.000000 5.921849
RightHandThumb1 -24.326973 -0.000000 -32.862282
LeftUpLeg -34.631864 -3.713525 -0.092697
LeftLeg 2.757897 -0.000000 -0.000000
LeftFoot -0.178829 6.643621 -15.500651
LeftToeBase -7.964456 -0.000000 0.000000
RightUpLeg -42.864976 2.500612 0.486520
RightLeg 18.697706 -0.000000 -0.000000
RightFoot -5.904795 -5.891741 15.398333
RightToeBase -1.389098 -0.000000 0.000000
315
root 22.335811 32.458057 3.467473 23.275614 -83.171938 4.085169
Spine -1.486116 -6.591895 -1.014172
Head -3.488945 -2.513926 7.107667
LeftShoulder -0.153748 32.745165 22.136206
LeftArm 72.557944 15.000201 -61.037092
LeftForeArm -5.940395 -0.000000 17.771780
LeftHand 7.895965 -0.000000 -4.451483
LeftHandThumb1 -26.253704 0.000000 33.147579
RightShoulder 3.926875 3.943381 -17.739723
RightArm 30.433745 -28.007253 80.033156
RightForeArm -2.792001 -0.000000 19.423153
RightHand 5.539678 0.000000 5.808683
RightHandThumb1 -24.326973 -0.000000 -32.862282
LeftUpLeg -34.954294 -3.771361 -0.466862
LeftLeg 3.387947 -0.000000 -0.000000
LeftFoot -0.503246 6.215592 -15.728765
LeftToeBase -8.126173 -0.000000 0.000000
RightUpLeg -42.310823 1.828077 0.429497
RightLeg 17.725242 -0.000000 -0.000000
RightFoot -6.004540 -5.664654 15.285551
RightToeBase -1.283797 -0.000000 0.000000
316
root 22.327005 32.449622 3.450152 21.780558 -82.738188 5.697327
Spine -1.580318 -6.713279 -0.951972
Head -3.587920 -2.795124 6.898390
LeftShoulder 0.115648 32.400332 22.221501
LeftArm 72.954381 14.991792 -60.865860
LeftForeArm -5.885184 -0.000000 17.556361
LeftHand 7.935590 0.000000 -4.682037
LeftHandThumb1 -26.253704 0.000000 33.147579
RightShoulder 4.032217 4.135335 -17.913428
RightArm 30.630837 -28.066660 79.913195
RightForeArm -2.748007 -0.000000 19.330937
RightHand 5.569107 0.000000 5.881682
RightHandThumb1 -24.326973 -0.000000 -32.862282
LeftUpLeg -35.368330 -3.907401 -0.645319
LeftLeg 4.064789 -0.000000 -0.000000
LeftFoot -0.815654 5.892221 -16.052818
LeftToeBase -8.558888 -0.000000 0.000000
RightUpLeg -41.785206 1.425420 0.309242
RightLeg 16.567032 -0.000000 -0.000000
RightFoot -6.005886 -5.694971 15.450782
RightToeBase -1.228419 -0.000000 0.000000
317
root 22.325337 32.448038 3.433854 20.354226 -82.292943 7.295405
Spine -1.709830 -6.847858 -0.884473
Head -3.725509 -3.069551 6.647251
LeftShoulder 0.376646 31.993592 22.281589
LeftArm 73.254263 14.995419 -60.754911
LeftForeArm -5.768255 -0.000000 17.395458
LeftHand 7.837677 -0.000000 -4.662163
LeftHandThumb1 -26.253704 0.000000 33.147579
RightShoulder 4.121131 4.364015 -18.079420
RightArm 30.822347 -28.148957 79.777359
RightForeArm -2.616398 0.000000 19.235342
RightHand 5.567415 -0.000000 5.781477
RightHandThumb1 -24.326973 -0.000000 -32.862282
LeftUpLeg -35.825878 -4.317986 -0.647865
LeftLeg 4.671609 -0.000000 -0.000000
LeftFoot -1.138747 5.926983 -16.680693
LeftToeBase -8.688253 -0.000000 0.000000
RightUpLeg -41.442594 0.974487 0.242402
RightLeg 15.582154 -0.000000 -0.000000
RightFoot -5.836596 -5.727022 15.392887
RightToeBase -1.235593 -0.000000 0.000000
